C:\Users\jackb\Documents\projects\Masters\adult_control\InputData/emg/ng10220_crop.c3d.mot
nRows=36
nColumns=13

name C:\Users\jackb\Documents\projects\Masters\adult_control\InputData/emg/ng10220_crop.c3d.mot
datacolumns 13
datarows 36
range 6.1975000000 6.2150000000
endheader
time	soleus_r	rect_fem_r	lat_gas_r	med_gas_r	vas_lat_r	vas_med_r	bifemlh_r	semimem_r	tib_ant_r	per_brev_r	ext_dig_r	ext_hal_r
        6.1975000000	        0.4376074243	        0.0771622777	        0.1013946629	        0.1681181757	        0.0568778132	        0.0630508058	        0.0289226636	        0.0538026943	        0.0941946061	        0.1777808411	        0.2346491187	        0.1615400003	
        6.1980000000	        0.4384271969	        0.0774132827	        0.1016789593	        0.1677321200	        0.0564318221	        0.0626317804	        0.0288060824	        0.0541064586	        0.0942165895	        0.1774653611	        0.2343345721	        0.1611894385	
        6.1985000000	        0.4390974428	        0.0776654471	        0.1019794833	        0.1673495554	        0.0559771505	        0.0622061060	        0.0286938087	        0.0544025766	        0.0942297691	        0.1771550239	        0.2339971227	        0.1608354331	
        6.1990000000	        0.4396173550	        0.0779191758	        0.1022962079	        0.1669728768	        0.0555142594	        0.0617742336	        0.0285858292	        0.0546907225	        0.0942343875	        0.1768508145	        0.2336384024	        0.1604786722	
        6.1995000000	        0.4399864102	        0.0781747980	        0.1026290201	        0.1666045887	        0.0550436338	        0.0613366336	        0.0284821237	        0.0549705734	        0.0942307021	        0.1765536692	        0.2332599934	        0.1601197978	
        6.2000000000	        0.4402043370	        0.0784325562	        0.1029777027	        0.1662472191	        0.0545657844	        0.0608938070	        0.0283826678	        0.0552418209	        0.0942190120	        0.1762644218	        0.2328633545	        0.1597593732	
        6.2005000000	        0.4402710901	        0.0786926018	        0.1033419249	        0.1659031696	        0.0540812525	        0.0604462987	        0.0282874359	        0.0555041825	        0.0941996770	        0.1759837667	        0.2324498105	        0.1593978728	
        6.2010000000	        0.4401868769	        0.0789550060	        0.1037212474	        0.1655746128	        0.0535906203	        0.0599947043	        0.0281964013	        0.0557574081	        0.0941731274	        0.1757122545	        0.2320206037	        0.1590356915	
        6.2015000000	        0.4399521958	        0.0792197793	        0.1041151362	        0.1652634839	        0.0530945206	        0.0595396628	        0.0281095323	        0.0560012803	        0.0941398648	        0.1754503089	        0.2315769623	        0.1586731570	
        6.2020000000	        0.4395678486	        0.0794868901	        0.1045229755	        0.1649714978	        0.0525936441	        0.0590818332	        0.0280267874	        0.0562356135	        0.0941004558	        0.1751982433	        0.2311201524	        0.1583105341	
        6.2025000000	        0.4390349255	        0.0797562793	        0.1049440752	        0.1647001463	        0.0520887423	        0.0586218704	        0.0279481137	        0.0564602563	        0.0940555147	        0.1749562732	        0.2306515041	        0.1579480244	
        6.2030000000	        0.4383547595	        0.0800278719	        0.1053776781	        0.1644507225	        0.0515806301	        0.0581604276	        0.0278734483	        0.0566750943	        0.0940056717	        0.1747245233	        0.2301724130	        0.1575857625	
        6.2035000000	        0.4375288588	        0.0803015873	        0.1058229779	        0.1642244002	        0.0510701842	        0.0576981901	        0.0278027216	        0.0568800510	        0.0939515342	        0.1745030330	        0.2296843281	        0.1572238119	
        6.2040000000	        0.4365588483	        0.0805773429	        0.1062791533	        0.1640223263	        0.0505583359	        0.0572359067	        0.0277358614	        0.0570750832	        0.0938936791	        0.1742917650	        0.2291887399	        0.1568621622	
        6.2045000000	        0.4354464488	        0.0808550539	        0.1067454122	        0.1638456795	        0.0500460520	        0.0567743861	        0.0276727930	        0.0572601720	        0.0938326967	        0.1740906225	        0.2286871740	        0.1565007347	
        6.2050000000	        0.4341934767	        0.0811346310	        0.1072210242	        0.1636956724	        0.0495343044	        0.0563144602	        0.0276134375	        0.0574353141	        0.0937692492	        0.1738994733	        0.2281811859	        0.1561393987	
        6.2055000000	        0.4328018296	        0.0814159802	        0.1077053250	        0.1635735055	        0.0490240358	        0.0558569364	        0.0275577108	        0.0576005193	        0.0937040849	        0.1737181732	        0.2276723497	        0.1557780050	
        6.2060000000	        0.4312734688	        0.0816990005	        0.1081976977	        0.1634802914	        0.0485161416	        0.0554025695	        0.0275055248	        0.0577558113	        0.0936380014	        0.1735465885	        0.2271622390	        0.1554164338	
        6.2065000000	        0.4296104134	        0.0819835801	        0.1086975493	        0.1634169785	        0.0480114826	        0.0549520610	        0.0274567894	        0.0579012295	        0.0935717855	        0.1733846164	        0.2266524077	        0.1550546513	
        6.2070000000	        0.4278147475	        0.0822695959	        0.1092042905	        0.1633842921	        0.0475109122	        0.0545060748	        0.0274114101	        0.0580368258	        0.0935061644	        0.1732322025	        0.2261443713	        0.1546927639	
        6.2075000000	        0.4258886367	        0.0825569250	        0.1097173183	        0.1633827081	        0.0470152895	        0.0540652522	        0.0273692864	        0.0581626578	        0.0934417949	        0.1730893509	        0.2256395816	        0.1543310572	
        6.2080000000	        0.4238343515	        0.0828454624	        0.1102359951	        0.1634124639	        0.0465254746	        0.0536302220	        0.0273303103	        0.0582787792	        0.0933792987	        0.1729561190	        0.2251393845	        0.1539700061	
        6.2085000000	        0.4216542722	        0.0831351224	        0.1107596277	        0.1634735890	        0.0460423212	        0.0532015990	        0.0272943680	        0.0583852360	        0.0933193096	        0.1728325935	        0.2246449661	        0.1536102350	
        6.2090000000	        0.4193508646	        0.0834258137	        0.1112874581	        0.1635659320	        0.0455666811	        0.0527799713	        0.0272613420	        0.0584820726	        0.0932625006	        0.1727188514	        0.2241573244	        0.1532524337	
        6.2095000000	        0.4169266470	        0.0837174196	        0.1118186677	        0.1636891729	        0.0450994171	        0.0523658790	        0.0272311180	        0.0585693442	        0.0932095750	        0.1726149199	        0.2236772882	        0.1528972643	
        6.2100000000	        0.4143841733	        0.0840098151	        0.1123523864	        0.1638428294	        0.0446414101	        0.0519597995	        0.0272035935	        0.0586471267	        0.0931612245	        0.1725207504	        0.2232055437	        0.1525452993	
        6.2105000000	        0.4117260459	        0.0843028963	        0.1128876974	        0.1640262662	        0.0441935571	        0.0515621462	        0.0271786861	        0.0587155213	        0.0931180783	        0.1724362095	        0.2227426296	        0.1521969996	
        6.2110000000	        0.4089549454	        0.0845965852	        0.1134236458	        0.1642387112	        0.0437567613	        0.0511732751	        0.0271563357	        0.0587746570	        0.0930806818	        0.1723610790	        0.2222889167	        0.1518527122	
        6.2115000000	        0.4060736568	        0.0848908089	        0.1139592573	        0.1644792798	        0.0433319210	        0.0507934942	        0.0271364983	        0.0588246930	        0.0930495152	        0.1722950569	        0.2218445951	        0.1515126729	
        6.2120000000	        0.4030850774	        0.0851854712	        0.1144935667	        0.1647469998	        0.0429199179	        0.0504230750	        0.0271191364	        0.0588658223	        0.0930250291	        0.1722377618	        0.2214096773	        0.1511770140	
        6.2125000000	        0.3999922049	        0.0854804294	        0.1150256511	        0.1650408355	        0.0425216075	        0.0500622650	        0.0271042108	        0.0588982724	        0.0930076618	        0.1721887412	        0.2209840261	        0.1508457777	
        6.2130000000	        0.3967981076	        0.0857754797	        0.1155546588	        0.1653597040	        0.0421378107	        0.0497112887	        0.0270916807	        0.0589223001	        0.0929978279	        0.1721474850	        0.2205674051	        0.1505189315	
        6.2135000000	        0.3935058972	        0.0860703571	        0.1160798280	        0.1657024836	        0.0417693102	        0.0493703366	        0.0270815097	        0.0589381773	        0.0929958845	        0.1721134397	        0.2201595325	        0.1501963809	
        6.2140000000	        0.3901187284	        0.0863647500	        0.1166004870	        0.1660680111	        0.0414168443	        0.0490395499	        0.0270736738	        0.0589461742	        0.0930021005	        0.1720860193	        0.2197601061	        0.1498779783	
        6.2145000000	        0.3866398675	        0.0866583290	        0.1171160369	        0.1664550753	        0.0410810966	        0.0487190178	        0.0270681621	        0.0589465464	        0.0930166473	        0.1720646034	        0.2193687854	        0.1495635280	
        6.2150000000	        0.3830728368	        0.0869507768	        0.1176259211	        0.1668624114	        0.0407626775	        0.0484087822	        0.0270649706	        0.0589395277	        0.0930396048	        0.1720485286	        0.2189851675	        0.1492527930	
